<svg width="326" height="325" viewBox="0 0 326 325" fill="none" xmlns="http://www.w3.org/2000/svg">
<path d="M30.7549 36.25C30.7549 35.1454 31.6503 34.25 32.7549 34.25H95.0049C96.1095 34.25 97.0049 35.1454 97.0049 36.25V288.75C97.0049 289.855 96.1095 290.75 95.0049 290.75H32.7549C31.6503 290.75 30.7549 289.855 30.7549 288.75V36.25Z" stroke="#353535" stroke-width="3.25"/>
<path fill-rule="evenodd" clip-rule="evenodd" d="M13.5813 88.9878C13.263 87.9301 13.8623 86.8145 14.92 86.4962L106.846 58.8265C107.904 58.5081 109.019 59.1075 109.338 60.1651L113.949 75.4861C114.268 76.5438 113.668 77.6594 112.611 77.9777L20.6845 105.647C19.6268 105.966 18.5113 105.366 18.193 104.309L13.5813 88.9878ZM29.0534 92.6851C29.531 94.2717 28.6319 95.945 27.0454 96.4225C25.4589 96.9001 23.7856 96.001 23.308 94.4145C22.8305 92.828 23.7295 91.1547 25.316 90.6771C26.9026 90.1996 28.5759 91.0986 29.0534 92.6851ZM103.411 73.4365C104.998 72.9589 105.897 71.2857 105.419 69.6991C104.942 68.1126 103.268 67.2136 101.682 67.6911C100.095 68.1687 99.1962 69.8419 99.6738 71.4285C100.151 73.015 101.825 73.914 103.411 73.4365Z" fill="#353535"/>
<path fill-rule="evenodd" clip-rule="evenodd" d="M29.848 54.726C30.406 53.7728 31.6312 53.4524 32.5844 54.0104L115.433 102.509C116.386 103.067 116.706 104.292 116.148 105.246L108.065 119.054C107.507 120.007 106.282 120.327 105.329 119.769L22.4805 71.2705C21.5272 70.7125 21.2068 69.4873 21.7649 68.5341L29.848 54.726ZM37.6727 68.5765C36.8357 70.0064 34.998 70.487 33.5681 69.6499C32.1382 68.8129 31.6576 66.9752 32.4947 65.5453C33.3317 64.1154 35.1694 63.6349 36.5993 64.4719C38.0291 65.3089 38.5097 67.1466 37.6727 68.5765ZM102.393 109.939C103.823 110.776 105.66 110.296 106.497 108.866C107.334 107.436 106.854 105.598 105.424 104.761C103.994 103.924 102.156 104.405 101.319 105.835C100.482 107.265 100.963 109.102 102.393 109.939Z" fill="#353535"/>
<path fill-rule="evenodd" clip-rule="evenodd" d="M15.6626 191.17C15.1613 190.186 15.5528 188.982 16.537 188.48L102.079 144.908C103.063 144.406 104.267 144.798 104.769 145.782L112.031 160.039C112.532 161.023 112.141 162.228 111.157 162.729L25.6146 206.302C24.6304 206.803 23.4261 206.412 22.9248 205.427L15.6626 191.17ZM31.5459 192.058C32.2979 193.534 31.7107 195.341 30.2344 196.093C28.758 196.845 26.9516 196.258 26.1995 194.781C25.4475 193.305 26.0347 191.498 27.5111 190.746C28.9874 189.994 30.7939 190.582 31.5459 192.058ZM101.296 159.896C102.773 159.144 103.36 157.337 102.608 155.861C101.856 154.384 100.049 153.797 98.5731 154.549C97.0967 155.301 96.5095 157.108 97.2615 158.584C98.0136 160.06 99.82 160.648 101.296 159.896Z" fill="#353535"/>
<path fill-rule="evenodd" clip-rule="evenodd" d="M186.659 269.25C182.517 269.25 179.159 272.608 179.159 276.75C179.159 280.892 182.517 284.25 186.659 284.25H220.659V281.25H186.659C184.174 281.25 182.159 279.235 182.159 276.75C182.159 274.265 184.174 272.25 186.659 272.25H220.659V269.25H186.659Z" fill="#353535"/>
<path fill-rule="evenodd" clip-rule="evenodd" d="M186.659 257.25C182.517 257.25 179.159 260.608 179.159 264.75C179.159 268.892 182.517 272.25 186.659 272.25H220.659V269.25H186.659C184.174 269.25 182.159 267.235 182.159 264.75C182.159 262.265 184.174 260.25 186.659 260.25H220.659V257.25H186.659Z" fill="#353535"/>
<path fill-rule="evenodd" clip-rule="evenodd" d="M186.659 245.25C182.517 245.25 179.159 248.608 179.159 252.75C179.159 256.892 182.517 260.25 186.659 260.25H220.659V257.25H186.659C184.174 257.25 182.159 255.235 182.159 252.75C182.159 250.265 184.174 248.25 186.659 248.25H220.659V245.25H186.659Z" fill="#353535"/>
<path fill-rule="evenodd" clip-rule="evenodd" d="M187.659 276.75C187.659 276.198 188.107 275.75 188.659 275.75H220.659V277.75H188.659C188.107 277.75 187.659 277.302 187.659 276.75Z" fill="#353535"/>
<path fill-rule="evenodd" clip-rule="evenodd" d="M187.659 264.75C187.659 264.198 188.107 263.75 188.659 263.75H220.659V265.75H188.659C188.107 265.75 187.659 265.302 187.659 264.75Z" fill="#353535"/>
<path fill-rule="evenodd" clip-rule="evenodd" d="M187.659 252.75C187.659 252.198 188.107 251.75 188.659 251.75H220.659V253.75H188.659C188.107 253.75 187.659 253.302 187.659 252.75Z" fill="#353535"/>
<path d="M172.56 180.879C169.36 187.479 164.06 187.712 161.81 187.004L143.55 156.879C149.542 156.779 151.972 152.587 152.438 150.504L172.56 180.879Z" fill="#353535"/>
<path d="M137.185 146.379C136.102 145.504 133.385 143.879 131.185 144.379C128.985 144.879 128.935 151.879 125.31 152.754M137.185 146.379C137.935 146.462 140.81 145.554 146.31 141.254M137.185 146.379L143.55 156.879M146.31 141.254C145.644 138.754 145.31 133.654 149.31 133.254C153.31 132.854 155.935 131.004 157.06 129.879C156.56 125.129 152.438 121.629 151.31 121.504C150.183 121.379 134.935 124.629 134.935 124.629M146.31 141.254L152.438 150.504M134.935 124.629C134.935 124.629 125.185 130.504 124.31 131.379M134.935 124.629C137.035 124.929 138.727 127.504 139.31 128.754M124.31 131.379C123.435 132.254 118.797 139.37 117.81 141.254M124.31 131.379C124.935 132.712 126.685 135.329 128.685 135.129M117.81 141.254C115.06 146.504 121.685 153.629 125.31 152.754M117.81 141.254C120.894 141.337 126.71 143.754 125.31 152.754M152.438 150.504L172.56 180.879C169.36 187.479 164.06 187.712 161.81 187.004L143.55 156.879M152.438 150.504C151.972 152.587 149.542 156.779 143.55 156.879M128.685 135.129C130.685 134.929 136.602 130.795 139.31 128.754M128.685 135.129L125.685 141.254M139.31 128.754C141.894 128.17 147.285 126.829 148.185 126.129" stroke="#353535" stroke-width="3" stroke-linecap="round" stroke-linejoin="round"/>
<path d="M247.659 233.125C238.659 227.625 235.534 223.289 235.534 223.289C231.752 223.251 225.904 222.858 220.034 221.825C220.034 221.825 220.756 221.828 213.034 234.789C208.839 241.829 203.559 244.639 198.909 244.817C196.032 244.926 193.396 244.028 191.408 242.5C190.693 241.951 190.062 241.32 189.534 240.625C185.159 234.875 185.284 225 185.284 220.75C185.284 216.5 183.96 165.867 194.534 145.039C209.784 115 252.159 116.586 263.284 143.375C268.504 154.819 264.312 180.066 263.436 197.75C264.052 197.667 265.86 196.375 267.409 194.5C278.659 180.875 275.659 181.375 280.409 175.25C286.774 167.042 295.672 173 292.909 182.375C290.145 191.75 272.562 205.458 263.889 209.125C266.308 220.052 275.013 222.143 272.131 231.5C271.891 232.28 271.57 233.11 271.159 234C270.592 235.159 269.964 236.109 269.286 236.875C263.388 243.547 253.713 236.361 247.659 233.125Z" fill="white"/>
<path d="M202.409 214.914C205.999 218.45 213.031 220.593 220.034 221.825M220.034 221.825C225.904 222.858 231.752 223.251 235.534 223.289C235.534 223.289 238.659 227.625 247.659 233.125C253.713 236.361 263.388 243.547 269.286 236.875M220.034 221.825C220.034 221.825 220.756 221.828 213.034 234.789C208.839 241.829 203.559 244.639 198.909 244.817M191.408 242.5C190.693 241.951 190.062 241.32 189.534 240.625C185.159 234.875 185.284 225 185.284 220.75C185.284 216.5 183.96 165.867 194.534 145.039C209.784 115 252.159 116.586 263.284 143.375C268.504 154.819 264.312 180.066 263.436 197.75M191.408 242.5L193.659 238.5M191.408 242.5C193.396 244.028 196.032 244.926 198.909 244.817M198.909 244.817L198.659 240.375M269.286 236.875C269.964 236.109 270.592 235.159 271.159 234C271.57 233.11 271.891 232.28 272.131 231.5M269.286 236.875L264.784 234M272.131 231.5L267.534 230M272.131 231.5C275.013 222.143 266.308 220.052 263.889 209.125M263.889 209.125C263.509 207.406 263.284 205.469 263.284 203.25C263.284 201.526 263.34 199.683 263.436 197.75M263.889 209.125C272.562 205.458 290.145 191.75 292.909 182.375C295.672 173 286.774 167.042 280.409 175.25C275.659 181.375 278.659 180.875 267.409 194.5C265.86 196.375 264.052 197.667 263.436 197.75" stroke="#353535" stroke-width="3.25" stroke-linecap="round" stroke-linejoin="round"/>
<path d="M304.434 125.15C290.914 175.228 216.755 157.693 216.755 157.693C193.292 152.614 162.706 141.852 161.907 109.574C162.412 96.2582 168.571 79.5157 180.856 66.2077C179.199 63.8791 181.561 59.3717 182.949 57.409C178.746 56.9813 176.967 54.6565 182.908 50.8834C191.015 45.7337 204.054 46.4738 209.559 47.4877C219.806 43.9912 231.772 42.5173 245.524 44.0202C261.201 46.6764 273.009 52.0088 281.831 58.7797C290.531 59.6125 303.174 63.9469 309.109 76.6208C310.709 80.0379 309.337 81.7256 306.409 81.7661C306.11 88.4089 305.29 91.8594 304.109 93.7281C307.181 106.587 306.209 118.575 304.434 125.15Z" fill="white"/>
<path d="M277.12 58.6644C278.47 58.586 280.07 58.611 281.831 58.7797M306.409 81.7661C309.337 81.7256 310.709 80.0379 309.109 76.6208C303.174 63.9469 290.531 59.6125 281.831 58.7797M306.409 81.7661C306.11 88.4089 305.29 91.8594 304.109 93.7281M306.409 81.7661C304.501 81.7925 301.933 81.12 299.096 79.7715C294.632 77.6503 289.502 73.8563 285.227 68.4781C291.369 75.5623 297.584 85.4209 300.834 95.9613C302.089 95.6622 303.205 95.1588 304.109 93.7281M304.109 93.7281C307.181 106.587 306.209 118.575 304.434 125.15C290.914 175.228 216.755 157.693 216.755 157.693C193.292 152.614 162.706 141.852 161.907 109.574C162.412 96.2582 168.571 79.5157 180.856 66.2077M281.831 58.7797C273.009 52.0088 261.201 46.6764 245.524 44.0202C231.772 42.5173 219.806 43.9912 209.559 47.4877M209.559 47.4877C204.054 46.4738 191.015 45.7337 182.908 50.8834C176.967 54.6565 178.746 56.9813 182.949 57.409M209.559 47.4877C203.683 49.493 198.372 52.1636 193.614 55.3197M193.614 55.3197C190.093 57.0671 185.917 57.7109 182.949 57.409M193.614 55.3197C188.799 58.514 184.55 62.2055 180.856 66.2077M182.949 57.409C181.561 59.3717 179.199 63.8791 180.856 66.2077" stroke="#353535" stroke-width="3" stroke-linecap="round" stroke-linejoin="round"/>
<ellipse cx="279.807" cy="129.238" rx="3.875" ry="1.125" transform="rotate(11.6978 279.807 129.238)" fill="#353535"/>
<ellipse cx="277.786" cy="134.973" rx="3.75" ry="1.625" transform="rotate(33.4365 277.786 134.973)" fill="#353535"/>
<ellipse cx="168.888" cy="107.822" rx="3.375" ry="1.5" transform="rotate(17.0657 168.888 107.822)" fill="#353535"/>
<ellipse cx="169.099" cy="114.176" rx="3.25" ry="1.625" transform="rotate(-6.326 169.099 114.176)" fill="#353535"/>
<path d="M215.991 102.533C214.855 103.717 216.977 106.162 218.441 106.573C220.305 106.777 223.607 104.874 223.516 103.858C223.404 102.589 217.41 101.053 215.991 102.533Z" fill="#353535"/>
<path d="M218.441 106.573C216.977 106.162 214.855 103.717 215.991 102.533C217.41 101.053 223.404 102.589 223.516 103.858C223.607 104.874 220.305 106.777 218.441 106.573ZM218.441 106.573C217.269 109.631 214.006 114.715 210.332 110.591M218.441 106.573C218.686 109.702 220.633 115.514 226.461 113.737" stroke="#353535" stroke-width="1.75" stroke-linecap="round"/>
<ellipse cx="257.271" cy="75.7341" rx="4.75" ry="3.5" transform="rotate(6.23675 257.271 75.7341)" fill="#353535"/>
<ellipse cx="201.061" cy="67.705" rx="4.5" ry="3.375" transform="rotate(6.23675 201.061 67.705)" fill="#353535"/>
<ellipse cx="258.323" cy="107.536" rx="18.75" ry="19.25" transform="rotate(6.23675 258.323 107.536)" fill="#353535"/>
<ellipse cx="251.557" cy="99.2526" rx="5.875" ry="5.75" transform="rotate(6.23675 251.557 99.2526)" fill="white"/>
<ellipse cx="191.699" cy="96.9864" rx="15.625" ry="18.25" transform="rotate(6.23675 191.699 96.9864)" fill="#353535"/>
<ellipse cx="189.477" cy="89.7019" rx="5.125" ry="5" transform="rotate(6.23675 189.477 89.7019)" fill="white"/>
<path d="M238.386 43.2402C232.347 47.107 220.433 58.6309 221.09 73.792M253.67 44.9105C247.665 47.314 234.879 56.6888 231.776 74.9598" stroke="#353535" stroke-width="7.25" stroke-linecap="round" stroke-linejoin="round"/>
<path d="M262.437 189.262C276.811 184.871 272.062 170.512 266.812 159.137C260.562 160.262 262.437 159.887 255.687 160.637C248.46 156.544 239.218 153.493 233.312 155.265C230.74 156.036 228.801 157.723 227.937 160.637C224.75 171.387 249.75 193.137 262.437 189.262Z" fill="white"/>
<path d="M227.937 160.637C224.75 171.387 249.75 193.137 262.437 189.262C276.811 184.871 272.062 170.512 266.812 159.137C260.562 160.262 262.437 159.887 255.687 160.637M227.937 160.637C228.801 157.723 230.74 156.036 233.312 155.265M227.937 160.637L231.937 161.512M260.812 170.387C261.062 168.137 260.312 165.887 255.687 160.637M255.687 160.637C248.46 156.544 239.218 153.493 233.312 155.265M233.312 155.265L235.187 159.137" stroke="#353535" stroke-width="3" stroke-linecap="round" stroke-linejoin="round"/>
<path d="M159.081 163.361C160.901 155.266 182.4 151.914 192.922 151.25C189.433 155.82 187.082 171.548 186.448 181.089L172.751 180.985L168.274 175.185C167.369 175.907 166.393 176.36 165.581 176.444C163.339 176.675 156.806 173.48 159.081 163.361Z" fill="white"/>
<path d="M171.13 169.424C171.243 171.812 169.867 173.915 168.274 175.185M168.274 175.185C167.369 175.907 166.393 176.36 165.581 176.444C163.339 176.675 156.806 173.48 159.081 163.361C160.901 155.266 182.4 151.914 192.922 151.25C189.433 155.82 187.082 171.548 186.448 181.089L172.751 180.985L168.274 175.185Z" stroke="#353535" stroke-width="3" stroke-linecap="round" stroke-linejoin="round"/>
<ellipse cx="216.909" cy="165.625" rx="1.5" ry="1.875" fill="#353535"/>
<ellipse cx="220.534" cy="165.625" rx="1.375" ry="1.875" fill="#353535"/>
<path d="M199.909 119.875L218.159 147.375C216.951 149.375 215.009 153.75 216.909 155.25M216.909 155.25C219.284 157.125 224.284 156.625 226.284 155.25C228.284 153.875 231.159 149.75 230.159 147.875M216.909 155.25C217.826 151.875 221.759 145.675 230.159 147.875M230.159 147.875C229.159 146 221.534 145.375 221.534 145.375L201.784 118.5" stroke="#353535" stroke-width="2" stroke-linecap="round" stroke-linejoin="round"/>
<ellipse cx="224.069" cy="152.065" rx="1.70225" ry="1.33667" transform="rotate(-34.4073 224.069 152.065)" fill="#353535"/>
</svg>
