<svg width="48" height="48" viewBox="0 0 48 48" fill="none" xmlns="http://www.w3.org/2000/svg">
<rect width="48" height="48" fill="#353535"/>
<path fill-rule="evenodd" clip-rule="evenodd" d="M13.9128 11.1351C14.7463 10.3016 15.8768 9.83331 17.0555 9.83331H30.9444C32.1232 9.83331 33.2536 10.3016 34.0871 11.1351C34.9206 11.9686 35.3889 13.099 35.3889 14.2778V36.5C35.3889 37.1243 35.04 37.6962 34.4848 37.9819C33.9297 38.2676 33.2615 38.2191 32.7535 37.8562L24 31.6037L15.2465 37.8562C14.7385 38.2191 14.0702 38.2676 13.5151 37.9819C12.96 37.6962 12.6111 37.1243 12.6111 36.5V14.2778C12.6111 13.099 13.0793 11.9686 13.9128 11.1351ZM17.0555 13.1666C16.7608 13.1666 16.4782 13.2837 16.2699 13.4921C16.0615 13.7005 15.9444 13.9831 15.9444 14.2778V33.2613L23.0312 28.1993C23.6107 27.7854 24.3892 27.7854 24.9687 28.1993L32.0555 33.2613V14.2778C32.0555 13.9831 31.9385 13.7005 31.7301 13.4921C31.5217 13.2837 31.2391 13.1666 30.9444 13.1666H17.0555Z" fill="white"/>
</svg>
