<svg width="48" height="48" viewBox="0 0 48 48" fill="none" xmlns="http://www.w3.org/2000/svg">
<path fill-rule="evenodd" clip-rule="evenodd" d="M10.5 28C6.35786 28 3 31.3579 3 35.5C3 39.6421 6.35786 43 10.5 43H44.5V40H10.5C8.01472 40 6 37.9853 6 35.5C6 33.0147 8.01472 31 10.5 31H44.5V28H10.5Z" fill="#ededed"/>
<path fill-rule="evenodd" clip-rule="evenodd" d="M10.5 16C6.35786 16 3 19.3579 3 23.5C3 27.6421 6.35786 31 10.5 31H44.5V28H10.5C8.01472 28 6 25.9853 6 23.5C6 21.0147 8.01472 19 10.5 19H44.5V16H10.5Z" fill="#ededed"/>
<path fill-rule="evenodd" clip-rule="evenodd" d="M10.5 4C6.35786 4 3 7.35786 3 11.5C3 15.6421 6.35786 19 10.5 19H44.5V16H10.5C8.01472 16 6 13.9853 6 11.5C6 9.01472 8.01472 7 10.5 7H44.5V4H10.5Z" fill="#ededed"/>
<path fill-rule="evenodd" clip-rule="evenodd" d="M11.5 35.5C11.5 34.9477 11.9477 34.5 12.5 34.5H44.5V36.5H12.5C11.9477 36.5 11.5 36.0523 11.5 35.5Z" fill="#ededed"/>
<path fill-rule="evenodd" clip-rule="evenodd" d="M11.5 23.5C11.5 22.9477 11.9477 22.5 12.5 22.5H44.5V24.5H12.5C11.9477 24.5 11.5 24.0523 11.5 23.5Z" fill="#ededed"/>
<path fill-rule="evenodd" clip-rule="evenodd" d="M11.5 11.5C11.5 10.9477 11.9477 10.5 12.5 10.5H44.5V12.5H12.5C11.9477 12.5 11.5 12.0523 11.5 11.5Z" fill="#ededed"/>
</svg>
