<svg width="84" height="24" viewBox="0 0 84 24" fill="none" xmlns="http://www.w3.org/2000/svg">
<path fill-rule="evenodd" clip-rule="evenodd" d="M5.25 14C3.17893 14 1.5 15.6789 1.5 17.75C1.5 19.8211 3.17893 21.5 5.25 21.5H22.25V20H5.25C4.00736 20 3 18.9926 3 17.75C3 16.5074 4.00736 15.5 5.25 15.5H22.25V14H5.25Z" fill="#353535"/>
<path fill-rule="evenodd" clip-rule="evenodd" d="M5.25 8C3.17893 8 1.5 9.67893 1.5 11.75C1.5 13.8211 3.17893 15.5 5.25 15.5H22.25V14H5.25C4.00736 14 3 12.9926 3 11.75C3 10.5074 4.00736 9.5 5.25 9.5H22.25V8H5.25Z" fill="#353535"/>
<path fill-rule="evenodd" clip-rule="evenodd" d="M5.25 2C3.17893 2 1.5 3.67893 1.5 5.75C1.5 7.82107 3.17893 9.5 5.25 9.5H22.25V8H5.25C4.00736 8 3 6.99264 3 5.75C3 4.50736 4.00736 3.5 5.25 3.5H22.25V2H5.25Z" fill="#353535"/>
<path fill-rule="evenodd" clip-rule="evenodd" d="M5.75 17.75C5.75 17.4739 5.97386 17.25 6.25 17.25H22.25V18.25H6.25C5.97386 18.25 5.75 18.0261 5.75 17.75Z" fill="#353535"/>
<path fill-rule="evenodd" clip-rule="evenodd" d="M5.75 11.75C5.75 11.4739 5.97386 11.25 6.25 11.25H22.25V12.25H6.25C5.97386 12.25 5.75 12.0261 5.75 11.75Z" fill="#353535"/>
<path fill-rule="evenodd" clip-rule="evenodd" d="M5.75 5.75C5.75 5.47386 5.97386 5.25 6.25 5.25H22.25V6.25H6.25C5.97386 6.25 5.75 6.02614 5.75 5.75Z" fill="#353535"/>
<path d="M34.7333 4.4V6.72H32.2333V6.8C32.2333 9.72 33.0333 10.6 34.9733 11.1V13.52C33.2133 13.24 31.8133 12.48 30.9333 11.44C30.0533 12.48 28.5533 13.44 26.7933 13.72V11.3C28.7533 10.82 29.5333 9.76 29.5333 6.8V6.72H27.0333V4.4H29.5333V2.4H32.2333V4.4H34.7333ZM39.7733 13.98V9.48H38.3533V13.88H35.7733V3.04H38.3533V7.1H39.7733V2.94H42.3933V13.98H39.7733ZM39.6533 17.14H28.2133V14.78H42.3933V21.6H39.6533V17.14ZM46.8926 13.64V3.26H61.3726V13.64H55.5326V18.12H62.2926V20.5H45.9726V18.12H52.8126V13.64H46.8926ZM58.6326 5.66H49.6326V11.24H58.6326V5.66ZM65.9118 6.56C65.9118 5.5 66.3318 4.74 67.0518 4.2C68.3918 3.22 70.6918 2.94 73.3518 2.94C76.0118 2.94 78.3118 3.22 79.6518 4.2C80.3718 4.74 80.7918 5.5 80.7918 6.56C80.7918 7.6 80.3718 8.38 79.6518 8.9C78.3118 9.9 76.0118 10.18 73.3518 10.18C70.6918 10.18 68.3918 9.9 67.0518 8.9C66.3318 8.38 65.9118 7.6 65.9118 6.56ZM68.6518 6.56C68.6518 6.84 68.7718 7.06 69.0318 7.24C69.7318 7.74 71.3118 7.86 73.3518 7.86C75.3918 7.86 76.9718 7.74 77.6718 7.24C77.9318 7.06 78.0518 6.84 78.0518 6.56C78.0518 6.28 77.9318 6.04 77.6718 5.88C76.9718 5.38 75.3918 5.24 73.3518 5.24C71.3118 5.24 69.7318 5.38 69.0318 5.88C68.7718 6.04 68.6518 6.28 68.6518 6.56ZM65.0718 11.12H81.5918V13.44H65.0718V11.12ZM66.2318 21.5V14.82H80.4318V21.5H66.2318ZM77.6918 17.12H68.9718V19.18H77.6918V17.12Z" fill="#353535"/>
</svg>
