<svg width="640" height="640" viewBox="0 0 640 640" fill="none" xmlns="http://www.w3.org/2000/svg">
<path d="M453.603 436.45C449.508 455.564 417.721 485.467 400.978 494.089C391.624 498.907 384.624 489.025 390.624 482.525C396.624 476.025 401.776 468.456 404.58 464.483C424.958 435.611 419.05 437.062 427.598 424.129C439.053 406.798 457.697 417.336 453.603 436.45Z" fill="white" stroke="#353535" stroke-width="6.5" stroke-linecap="round" stroke-linejoin="round"/>
<path d="M337.284 517.52C337.284 517.52 337.115 526.27 342.534 543.29C346.575 555.983 355.804 562.644 363.902 564.754C366.351 565.392 369.17 565.577 372.47 565.327C374.793 565.151 376.94 564.567 378.92 563.617C396.014 555.413 400.709 519.937 399.101 484.335C399.101 478.416 398.119 465.695 397.784 461.27C397.449 451.52 398.893 375.428 386.754 353.393C360.521 301.649 275.773 304.887 249.898 367.097C231.957 410.231 242.245 511.008 242.887 519.483C243.529 527.959 244.771 547.672 254.365 558.478C255.524 559.783 256.878 560.946 258.387 561.934C262.582 564.681 267.974 566.074 273.694 565.421C282.941 564.365 293.047 557.963 300.349 543.29C313.793 516.275 312.351 516.378 312.351 516.378C324.214 517.551 329.737 518.015 337.284 517.52Z" fill="white"/>
<path d="M276.158 505.258C283.852 511.767 298.2 514.978 312.351 516.378M312.351 516.378C324.214 517.551 329.737 518.015 337.284 517.52C337.284 517.52 337.115 526.27 342.534 543.29C346.575 555.983 355.804 562.644 363.902 564.754M312.351 516.378C312.351 516.378 313.793 516.275 300.349 543.29C293.047 557.963 282.941 564.365 273.694 565.421M397.784 461.27C398.119 465.695 399.101 478.417 399.101 484.335C400.709 519.937 396.014 555.413 378.92 563.617M397.784 461.27C397.449 451.52 398.893 375.428 386.754 353.393C360.521 301.649 275.773 304.887 249.898 367.097C231.957 410.231 242.245 511.008 242.887 519.483C243.529 527.959 244.771 547.672 254.365 558.478C255.524 559.783 256.878 560.946 258.387 561.934M397.784 461.27C398.118 471.02 397.523 457.831 397.784 461.27ZM258.387 561.934L262.27 553.617M258.387 561.934C262.582 564.681 267.974 566.074 273.694 565.421M273.694 565.421L272.525 556.601M363.902 564.754C366.351 565.392 369.17 565.577 372.47 565.327C374.793 565.151 376.94 564.567 378.92 563.617M363.902 564.754L365.83 553.796M378.92 563.617L375.303 553.078" stroke="#353535" stroke-width="6.5" stroke-linecap="round" stroke-linejoin="round"/>
<path d="M464.827 319.822C450.091 422.511 298.621 405.626 298.621 405.626C250.813 401.214 187.486 387.243 178.099 323.354C175.881 296.795 184.061 262.066 205.234 232.676C201.382 228.453 204.981 218.933 207.263 214.701C198.815 214.868 194.722 210.683 205.603 201.756C220.454 189.572 246.519 187.889 257.695 188.571C277.192 179.152 300.593 173.334 328.258 172.993C360.025 174.477 384.757 182.208 403.909 193.518C421.381 193.069 447.53 198.618 462.376 222.345C466.379 228.742 464.064 232.424 458.26 233.213C459.273 246.473 458.479 253.522 456.586 257.517C465.794 282.303 466.762 306.34 464.827 319.822Z" fill="white"/>
<path d="M394.527 194.428C397.188 193.946 400.37 193.609 403.909 193.518M458.26 233.213C464.064 232.424 466.379 228.742 462.376 222.345C447.53 198.618 421.381 193.069 403.909 193.518M458.26 233.213C459.273 246.473 458.479 253.522 456.586 257.517M458.26 233.213C454.479 233.726 449.218 233.012 443.259 231.021C433.884 227.888 422.782 221.596 412.995 211.952C426.901 224.532 441.624 242.602 450.623 262.743C453.043 261.845 455.136 260.576 456.586 257.517M456.586 257.517C465.794 282.303 466.762 306.34 464.827 319.822C450.091 422.511 298.621 405.626 298.621 405.626C250.813 401.214 187.486 387.243 178.099 323.354C175.881 296.795 184.061 262.066 205.234 232.676M403.909 193.518C384.757 182.208 360.025 174.477 328.258 172.993C300.593 173.334 277.192 179.152 257.695 188.571M257.695 188.571C246.519 187.889 220.454 189.572 205.603 201.756C194.722 210.683 198.815 214.868 207.263 214.701M257.695 188.571C246.512 193.973 236.614 200.559 227.931 207.975M227.931 207.975C221.363 212.296 213.227 214.583 207.263 214.701M227.931 207.975C219.144 215.481 211.601 223.837 205.234 232.676M207.263 214.701C204.981 218.933 201.382 228.453 205.234 232.676" stroke="#353535" stroke-width="6" stroke-linecap="round" stroke-linejoin="round"/>
<ellipse cx="206.033" cy="316.688" rx="6.75" ry="3" transform="rotate(10.1233 206.033 316.688)" fill="#353535"/>
<ellipse cx="6.75" cy="3" rx="6.75" ry="3" transform="matrix(-0.984432 0.175767 0.175767 0.984432 436.146 312.548)" fill="#353535"/>
<ellipse cx="207.989" cy="329.251" rx="6.5" ry="3.25" transform="rotate(-13.2684 207.989 329.251)" fill="#353535"/>
<ellipse cx="6.5" cy="3.25" rx="6.5" ry="3.25" transform="matrix(-0.973305 -0.229513 -0.229513 0.973305 435.145 327.579)" fill="#353535"/>
<path d="M309.041 304.846C307.106 307.495 311.963 311.776 314.974 312.202C318.723 312.109 324.76 307.459 324.311 305.47C323.749 302.983 311.46 301.535 309.041 304.846Z" fill="#353535"/>
<path d="M314.974 312.202C311.963 311.776 307.106 307.495 309.041 304.846C311.46 301.535 323.749 302.983 324.311 305.47C324.76 307.459 318.723 312.109 314.974 312.202ZM314.974 312.202C313.464 318.574 308.349 329.521 299.969 322.325M314.974 312.202C316.293 318.338 321.699 329.341 332.777 324.266" stroke="#353535" stroke-width="3.5" stroke-linecap="round"/>
<ellipse cx="373.748" cy="231.616" rx="9.5" ry="7" transform="rotate(-0.705681 373.748 231.616)" fill="#353535"/>
<ellipse cx="260.21" cy="229.264" rx="9" ry="6.75" transform="rotate(-0.705681 260.21 229.264)" fill="#353535"/>
<ellipse cx="383.523" cy="294.5" rx="37.5" ry="38.5" transform="rotate(-0.705681 383.523 294.5)" fill="#353535"/>
<ellipse cx="250.971" cy="294.5" rx="37.5" ry="38.5" transform="rotate(-0.705681 250.971 294.5)" fill="#353535"/>
<ellipse cx="372.326" cy="305.144" rx="11.75" ry="11.5" transform="rotate(-0.705681 372.326 305.144)" fill="white"/>
<ellipse cx="240.326" cy="303.644" rx="11.75" ry="11.5" transform="rotate(-0.705681 240.326 303.644)" fill="white"/>
<path d="M328.4 171.67C317.345 180.807 296.477 206.566 301.446 236.507M359.147 171.291C347.806 177.515 324.689 199.218 322.944 236.242" stroke="#353535" stroke-width="14.5" stroke-linecap="round" stroke-linejoin="round"/>
<path d="M445.123 333.618L441.69 443.994L327.603 466.952C325.687 468.686 319.997 472.127 312.56 472.019C305.124 471.91 300.231 468.712 298.714 467.126L192.453 440.247L186.59 328.862L195.394 330.789L215.436 321.607C281.107 323.711 311.821 349.349 311.821 349.349C322.485 342.961 340.633 328.848 417.205 326.14C428.922 333.066 433.658 335.506 433.658 335.506L445.123 333.618Z" fill="white"/>
<path d="M298.027 353.26C298.624 355.107 302.231 358.785 311.877 358.727C321.524 358.668 325.923 354.942 326.916 353.086M298.027 353.26L298.714 467.126M298.027 353.26L195.394 330.789M326.916 353.086L327.603 466.952M326.916 353.086L433.658 335.506M327.603 466.952L441.69 443.994L445.123 333.618L433.658 335.506M327.603 466.952C325.687 468.686 319.997 472.127 312.56 472.019C305.124 471.91 300.231 468.712 298.714 467.126M298.714 467.126L192.453 440.247L186.59 328.862L195.394 330.789M195.394 330.789L215.436 321.607C281.107 323.711 311.821 349.349 311.821 349.349C322.485 342.961 340.633 328.848 417.205 326.14C428.922 333.066 433.658 335.506 433.658 335.506" stroke="#353535" stroke-width="6.5" stroke-linejoin="round"/>
<path d="M447.085 416.448C459.338 400.448 441.085 373.698 416.685 380.395C411.746 382.506 408.271 386.293 407.208 392.278C403.286 414.357 431.835 430.448 447.085 416.448Z" fill="white"/>
<path d="M416.685 380.395C441.085 373.698 459.338 400.448 447.085 416.448C431.835 430.448 403.286 414.357 407.208 392.278M416.685 380.395C411.746 382.506 408.271 386.293 407.208 392.278M416.685 380.395L421.28 387.67M407.208 392.278L415.354 393.119" stroke="#353535" stroke-width="6" stroke-linecap="round" stroke-linejoin="round"/>
<path d="M179.726 411.448C167.473 395.448 185.726 368.698 210.126 375.395C215.064 377.506 218.54 381.293 219.603 387.278C223.525 409.357 194.976 425.448 179.726 411.448Z" fill="white"/>
<path d="M210.126 375.395C185.726 368.698 167.473 395.448 179.726 411.448C194.976 425.448 223.525 409.357 219.603 387.278M210.126 375.395C215.064 377.506 218.54 381.293 219.603 387.278M210.126 375.395L205.531 382.67M219.603 387.278L211.457 388.119" stroke="#353535" stroke-width="6" stroke-linecap="round" stroke-linejoin="round"/>
<path d="M100.302 231.914L99.8223 230.834C97.6251 225.809 96.326 221.611 95.9248 218.242C95.5513 214.86 95.8237 211.888 96.742 209.326C97.6481 206.735 98.9956 204.132 100.785 201.514C102.007 199.712 103.007 197.893 103.783 196.056C104.575 194.18 105.014 192.294 105.102 190.399C105.176 188.476 104.784 186.545 103.923 184.606C102.952 182.418 101.598 180.748 99.86 179.596C98.1223 178.444 96.1842 177.813 94.0459 177.701C91.9353 177.576 89.8136 177.988 87.6809 178.934C85.7143 179.807 84.0352 181.066 82.6436 182.711C81.2673 184.316 80.3786 186.236 79.9774 188.469C79.5916 190.663 79.9071 193.092 80.924 195.757L66.1333 202.321C63.9363 196.997 63.256 192.028 64.0924 187.413C64.9565 182.786 66.9895 178.701 70.1913 175.158C73.4209 171.603 77.4592 168.75 82.3064 166.599C87.5967 164.251 92.6618 163.114 97.5016 163.188C102.369 163.249 106.687 164.499 110.454 166.938C114.238 169.337 117.168 172.877 119.245 177.558C120.646 180.715 121.388 183.768 121.469 186.716C121.578 189.651 121.135 192.5 120.14 195.262C119.144 198.025 117.711 200.733 115.838 203.387C114.21 205.768 113.007 208.026 112.23 210.16C111.481 212.283 111.209 214.509 111.414 216.838C111.634 219.127 112.382 221.746 113.657 224.694L114.137 225.775L100.302 231.914ZM119.036 254.632C116.543 255.738 114.003 255.804 111.416 254.831C108.829 253.857 106.97 252.096 105.839 249.548C104.733 247.055 104.687 244.523 105.7 241.951C106.714 239.379 108.467 237.54 110.96 236.434C113.425 235.34 115.951 235.28 118.539 236.254C121.153 237.215 123.014 238.942 124.12 241.435C124.87 243.125 125.123 244.852 124.879 246.618C124.662 248.372 124.046 249.972 123.03 251.417C122.029 252.823 120.698 253.894 119.036 254.632Z" fill="#353535"/>
<path d="M220.622 101.026L220.26 99.9011C218.609 94.6706 217.762 90.359 217.721 86.9661C217.708 83.5639 218.295 80.6376 219.48 78.187C220.656 75.7077 222.272 73.2616 224.329 70.8489C225.736 69.1865 226.922 67.4835 227.889 65.7398C228.876 63.9581 229.513 62.1295 229.801 60.2542C230.079 58.3501 229.894 56.3884 229.244 54.3691C228.511 52.0903 227.341 50.286 225.735 48.9564C224.13 47.6268 222.27 46.7929 220.155 46.4546C218.07 46.107 215.916 46.2907 213.695 47.0054C211.647 47.6645 209.844 48.7382 208.286 50.2265C206.747 51.6767 205.659 53.491 205.023 55.6693C204.407 57.8096 204.463 60.2586 205.191 63.0166L189.787 67.9736C188.168 62.4464 188.019 57.4328 189.34 52.9329C190.691 48.4237 193.146 44.5777 196.705 41.3948C200.294 38.2027 204.612 35.7943 209.66 34.1699C215.17 32.3969 220.327 31.8037 225.132 32.3904C229.965 32.9678 234.126 34.669 237.613 37.4941C241.121 40.281 243.659 44.1119 245.227 48.9869C246.286 52.2754 246.699 55.3894 246.467 58.3291C246.264 61.2594 245.521 64.0452 244.238 66.6863C242.955 69.3275 241.242 71.8684 239.099 74.3089C237.226 76.5032 235.791 78.6205 234.792 80.6609C233.822 82.692 233.315 84.8765 233.272 87.2143C233.248 89.514 233.713 92.1974 234.669 95.2643L235.031 96.3893L220.622 101.026ZM236.839 125.603C234.243 126.439 231.711 126.235 229.242 124.992C226.772 123.75 225.111 121.801 224.257 119.147C223.421 116.551 223.644 114.028 224.925 111.579C226.206 109.129 228.145 107.487 230.741 106.651C233.308 105.825 235.826 106.034 238.295 107.276C240.793 108.51 242.46 110.425 243.295 113.021C243.862 114.78 243.93 116.525 243.5 118.255C243.098 119.976 242.316 121.501 241.152 122.831C240.008 124.122 238.57 125.046 236.839 125.603Z" fill="#353535"/>
<path d="M404.383 96.2838L404.955 95.2493C407.633 90.4626 410.193 86.8918 412.636 84.5369C415.106 82.1966 417.639 80.6185 420.236 79.8026C422.847 78.9601 425.736 78.4613 428.903 78.3061C431.078 78.1918 433.131 77.8893 435.064 77.3988C437.038 76.8964 438.806 76.1076 440.369 75.0323C441.947 73.9304 443.249 72.4511 444.274 70.5942C445.431 68.4986 445.944 66.4105 445.812 64.33C445.681 62.2494 445.013 60.3232 443.811 58.5514C442.635 56.7943 441.026 55.3517 438.983 54.2237C437.1 53.1836 435.082 52.6059 432.931 52.4906C430.82 52.3635 428.753 52.8146 426.731 53.844C424.75 54.8615 423.004 56.5803 421.495 59.0006L407.329 51.1777C410.245 46.2109 413.795 42.667 417.978 40.5461C422.187 38.4399 426.671 37.5927 431.428 38.0045C436.212 38.431 440.925 39.9261 445.567 42.4898C450.634 45.2879 454.6 48.6377 457.465 52.5392C460.356 56.4553 461.968 60.6513 462.3 65.1272C462.673 69.5913 461.622 74.0648 459.146 78.5478C457.476 81.5718 455.491 84.0065 453.191 85.8519C450.918 87.7119 448.379 89.0796 445.577 89.9549C442.774 90.8303 439.749 91.3235 436.503 91.4347C433.622 91.5744 431.096 91.9796 428.926 92.6503C426.782 93.3356 424.844 94.4633 423.111 96.0335C421.42 97.5918 419.784 99.7696 418.205 102.567L417.634 103.601L404.383 96.2838ZM397.595 124.936C395.207 123.618 393.62 121.634 392.834 118.984C392.047 116.334 392.328 113.789 393.675 111.348C394.994 108.961 396.984 107.394 399.646 106.649C402.308 105.903 404.832 106.19 407.22 107.508C409.581 108.812 411.154 110.789 411.941 113.439C412.754 116.103 412.501 118.629 411.183 121.017C410.289 122.635 409.065 123.88 407.51 124.752C405.982 125.639 404.335 126.114 402.569 126.178C400.845 126.229 399.186 125.815 397.595 124.936Z" fill="#353535"/>
<path d="M520.83 228.117L521.311 227.038C523.569 222.039 525.815 218.263 528.047 215.707C530.307 213.164 532.696 211.375 535.213 210.34C537.743 209.277 540.579 208.533 543.721 208.107C545.878 207.807 547.898 207.33 549.781 206.676C551.705 206.006 553.399 205.069 554.864 203.864C556.342 202.631 557.512 201.045 558.375 199.108C559.349 196.921 559.681 194.796 559.372 192.735C559.062 190.673 558.233 188.811 556.883 187.149C555.561 185.499 553.834 184.199 551.703 183.25C549.737 182.375 547.677 181.972 545.524 182.041C543.41 182.095 541.39 182.722 539.463 183.92C537.576 185.104 535.984 186.966 534.687 189.506L519.904 182.925C522.384 177.726 525.617 173.892 529.604 171.421C533.617 168.962 538.012 167.734 542.787 167.737C547.59 167.753 552.414 168.839 557.258 170.996C562.546 173.35 566.784 176.348 569.972 179.99C573.188 183.644 575.153 187.687 575.867 192.118C576.621 196.534 575.956 201.081 573.873 205.759C572.468 208.915 570.699 211.511 568.565 213.546C566.459 215.594 564.048 217.174 561.33 218.286C558.613 219.398 555.641 220.148 552.417 220.537C549.558 220.923 547.076 221.542 544.971 222.396C542.894 223.263 541.059 224.552 539.467 226.265C537.915 227.962 536.472 230.272 535.138 233.194L534.658 234.274L520.83 228.117ZM516.519 257.246C514.027 256.136 512.276 254.295 511.266 251.722C510.255 249.15 510.317 246.59 511.451 244.043C512.56 241.551 514.409 239.82 516.997 238.85C519.585 237.879 522.125 237.949 524.616 239.058C527.08 240.155 528.817 241.99 529.828 244.563C530.866 247.148 530.831 249.686 529.721 252.178C528.97 253.866 527.856 255.212 526.382 256.214C524.935 257.228 523.335 257.842 521.581 258.057C519.867 258.256 518.18 257.985 516.519 257.246Z" fill="#353535"/>
</svg>
