<svg width="650" height="650" viewBox="0 0 650 650" fill="none" xmlns="http://www.w3.org/2000/svg">
<path d="M60.51 72.5C60.51 70.2908 62.3009 68.5 64.51 68.5H189.01C191.219 68.5 193.01 70.2909 193.01 72.5V577.5C193.01 579.709 191.219 581.5 189.01 581.5H64.51C62.3009 581.5 60.51 579.709 60.51 577.5V72.5Z" stroke="#353535" stroke-width="6.5"/>
<path fill-rule="evenodd" clip-rule="evenodd" d="M26.1629 177.975C25.5262 175.86 26.7249 173.629 28.8403 172.992L212.692 117.653C214.808 117.016 217.039 118.215 217.675 120.33L226.899 150.972C227.535 153.088 226.337 155.319 224.221 155.955L40.3693 211.295C38.2539 211.932 36.0229 210.733 35.3862 208.617L26.1629 177.975ZM57.1075 185.37C58.0626 188.543 56.2646 191.89 53.0915 192.845C49.9184 193.8 46.5718 192.002 45.6167 188.829C44.6616 185.656 46.4597 182.309 49.6328 181.354C52.8058 180.399 56.1524 182.197 57.1075 185.37ZM205.823 146.873C208.996 145.918 210.794 142.571 209.839 139.398C208.884 136.225 205.537 134.427 202.364 135.382C199.191 136.337 197.393 139.684 198.348 142.857C199.303 146.03 202.65 147.828 205.823 146.873Z" fill="#353535"/>
<path fill-rule="evenodd" clip-rule="evenodd" d="M58.6971 109.452C59.8132 107.546 62.2634 106.905 64.1699 108.021L229.867 205.018C231.773 206.135 232.414 208.585 231.298 210.491L215.132 238.107C214.016 240.014 211.565 240.655 209.659 239.539L43.9621 142.541C42.0556 141.425 41.4148 138.975 42.5308 137.068L58.6971 109.452ZM74.3466 137.153C72.6725 140.013 68.9971 140.974 66.1374 139.3C63.2777 137.626 62.3165 133.95 63.9906 131.091C65.6646 128.231 69.34 127.27 72.1998 128.944C75.0595 130.618 76.0207 134.293 74.3466 137.153ZM203.787 219.879C206.646 221.553 210.322 220.592 211.996 217.732C213.67 214.872 212.709 211.197 209.849 209.523C206.989 207.849 203.314 208.81 201.64 211.669C199.966 214.529 200.927 218.205 203.787 219.879Z" fill="#353535"/>
<path fill-rule="evenodd" clip-rule="evenodd" d="M30.3255 382.341C29.3228 380.372 30.1058 377.964 32.0743 376.961L203.158 289.816C205.127 288.813 207.535 289.596 208.538 291.564L223.062 320.078C224.065 322.047 223.282 324.455 221.313 325.458L50.2295 412.603C48.2611 413.606 45.8524 412.823 44.8498 410.855L30.3255 382.341ZM62.0918 384.116C63.5959 387.069 62.4215 390.681 59.4688 392.186C56.516 393.69 52.9031 392.515 51.3991 389.562C49.8951 386.61 51.0695 382.997 54.0222 381.493C56.9749 379.989 60.5878 381.163 62.0918 384.116ZM201.593 319.791C204.546 318.287 205.72 314.674 204.216 311.722C202.712 308.769 199.099 307.595 196.147 309.099C193.194 310.603 192.019 314.216 193.523 317.168C195.027 320.121 198.64 321.295 201.593 319.791Z" fill="#353535"/>
<path fill-rule="evenodd" clip-rule="evenodd" d="M372.319 538.5C364.034 538.5 357.319 545.216 357.319 553.5C357.319 561.784 364.034 568.5 372.319 568.5H440.319V562.5H372.319C367.348 562.5 363.319 558.471 363.319 553.5C363.319 548.529 367.348 544.5 372.319 544.5H440.319V538.5H372.319Z" fill="#353535"/>
<path fill-rule="evenodd" clip-rule="evenodd" d="M372.319 514.5C364.034 514.5 357.319 521.216 357.319 529.5C357.319 537.784 364.034 544.5 372.319 544.5H440.319V538.5H372.319C367.348 538.5 363.319 534.471 363.319 529.5C363.319 524.529 367.348 520.5 372.319 520.5H440.319V514.5H372.319Z" fill="#353535"/>
<path fill-rule="evenodd" clip-rule="evenodd" d="M372.319 490.5C364.034 490.5 357.319 497.216 357.319 505.5C357.319 513.784 364.034 520.5 372.319 520.5H440.319V514.5H372.319C367.348 514.5 363.319 510.471 363.319 505.5C363.319 500.529 367.348 496.5 372.319 496.5H440.319V490.5H372.319Z" fill="#353535"/>
<path fill-rule="evenodd" clip-rule="evenodd" d="M374.319 553.5C374.319 552.395 375.214 551.5 376.319 551.5H440.319V555.5H376.319C375.214 555.5 374.319 554.605 374.319 553.5Z" fill="#353535"/>
<path fill-rule="evenodd" clip-rule="evenodd" d="M374.319 529.5C374.319 528.395 375.214 527.5 376.319 527.5H440.319V531.5H376.319C375.214 531.5 374.319 530.605 374.319 529.5Z" fill="#353535"/>
<path fill-rule="evenodd" clip-rule="evenodd" d="M374.319 505.5C374.319 504.395 375.214 503.5 376.319 503.5H440.319V507.5H376.319C375.214 507.5 374.319 506.605 374.319 505.5Z" fill="#353535"/>
<path d="M344.121 361.757C337.721 374.957 327.121 375.424 322.621 374.007L286.1 313.757C298.084 313.557 302.944 305.174 303.877 301.007L344.121 361.757Z" fill="#353535"/>
<path d="M273.371 292.757C271.204 291.007 265.771 287.757 261.371 288.757C256.971 289.757 256.871 303.757 249.621 305.507M273.371 292.757C274.871 292.924 280.621 291.107 291.621 282.507M273.371 292.757L286.1 313.757M291.621 282.507C290.288 277.507 289.621 267.307 297.621 266.507C305.621 265.707 310.871 262.007 313.121 259.757C312.121 250.257 303.877 243.257 301.621 243.007C299.365 242.757 268.871 249.257 268.871 249.257M291.621 282.507L303.877 301.007M268.871 249.257C268.871 249.257 249.371 261.007 247.621 262.757M268.871 249.257C273.071 249.857 276.454 255.007 277.621 257.507M247.621 262.757C245.871 264.507 236.594 278.74 234.621 282.507M247.621 262.757C248.871 265.424 252.371 270.657 256.371 270.257M234.621 282.507C229.121 293.007 242.371 307.257 249.621 305.507M234.621 282.507C240.788 282.674 252.421 287.507 249.621 305.507M303.877 301.007L344.121 361.757C337.721 374.957 327.121 375.424 322.621 374.007L286.1 313.757M303.877 301.007C302.944 305.174 298.084 313.557 286.1 313.757M256.371 270.257C260.371 269.857 272.204 261.59 277.621 257.507M256.371 270.257L250.371 282.507M277.621 257.507C282.788 256.34 293.571 253.657 295.371 252.257" stroke="#353535" stroke-width="6" stroke-linecap="round" stroke-linejoin="round"/>
<path d="M494.319 466.25C476.319 455.25 470.069 446.578 470.069 446.578C462.506 446.502 450.809 445.716 439.069 443.65C439.069 443.65 440.515 443.656 425.069 469.578C416.679 483.658 406.119 489.279 396.819 489.633C391.065 489.852 385.794 488.056 381.818 485C380.388 483.901 379.126 482.639 378.069 481.25C369.319 469.75 369.569 450 369.569 441.5C369.569 433 366.921 331.734 388.069 290.078C418.569 230 503.319 233.172 525.569 286.75C536.009 309.638 527.626 360.132 525.873 395.5C527.105 395.333 530.722 392.75 533.819 389C556.319 361.75 550.319 362.75 559.819 350.5C572.55 334.084 590.345 346 584.819 364.75C579.292 383.5 544.126 410.917 526.78 418.25C531.618 440.105 549.027 444.286 543.263 463C542.783 464.56 542.142 466.22 541.319 468C540.185 470.318 538.93 472.217 537.574 473.75C525.777 487.094 506.428 472.723 494.319 466.25Z" fill="white"/>
<path d="M403.819 429.828C410.999 436.9 425.064 441.185 439.069 443.65M439.069 443.65C450.809 445.716 462.506 446.502 470.069 446.578C470.069 446.578 476.319 455.25 494.319 466.25C506.428 472.723 525.777 487.094 537.574 473.75M439.069 443.65C439.069 443.65 440.515 443.656 425.069 469.578C416.679 483.658 406.119 489.279 396.819 489.633M381.818 485C380.388 483.901 379.126 482.639 378.069 481.25C369.319 469.75 369.569 450 369.569 441.5C369.569 433 366.921 331.734 388.069 290.078C418.569 230 503.319 233.172 525.569 286.75C536.009 309.638 527.626 360.132 525.873 395.5M381.818 485L386.319 477M381.818 485C385.794 488.056 391.065 489.852 396.819 489.633M396.819 489.633L396.319 480.75M537.574 473.75C538.93 472.217 540.185 470.318 541.319 468C542.142 466.22 542.783 464.56 543.263 463M537.574 473.75L528.569 468M543.263 463L534.069 460M543.263 463C549.027 444.286 531.618 440.105 526.78 418.25M526.78 418.25C526.019 414.812 525.569 410.938 525.569 406.5C525.569 403.051 525.681 399.366 525.873 395.5M526.78 418.25C544.126 410.917 579.292 383.5 584.819 364.75C590.345 346 572.55 334.084 559.819 350.5C550.319 362.75 556.319 361.75 533.819 389C530.722 392.75 527.105 395.333 525.873 395.5" stroke="#353535" stroke-width="6.5" stroke-linecap="round" stroke-linejoin="round"/>
<path d="M607.868 250.3C580.828 350.455 432.51 315.385 432.51 315.385C385.585 305.227 324.412 283.704 322.815 219.149C323.824 192.516 336.142 159.031 360.712 132.415C357.398 127.758 362.122 118.743 364.899 114.818C356.492 113.963 352.935 109.313 364.816 101.767C381.031 91.4673 407.108 92.9477 418.119 94.9753C438.612 87.9823 462.545 85.0347 490.048 88.0404C521.403 93.3528 545.019 104.018 562.663 117.559C580.062 119.225 605.348 127.894 617.218 153.242C620.418 160.076 617.675 163.451 611.818 163.532C611.22 176.818 609.58 183.719 607.218 187.456C613.363 213.173 611.418 237.151 607.868 250.3Z" fill="white"/>
<path d="M553.24 117.329C555.94 117.172 559.14 117.222 562.663 117.559M611.818 163.532C617.675 163.451 620.418 160.076 617.218 153.242C605.348 127.894 580.062 119.225 562.663 117.559M611.818 163.532C611.22 176.818 609.58 183.719 607.218 187.456M611.818 163.532C608.003 163.585 602.867 162.24 597.192 159.543C588.265 155.301 578.004 147.713 569.454 136.956C581.738 151.125 594.169 170.842 600.668 191.923C603.178 191.324 605.41 190.318 607.218 187.456M607.218 187.456C613.363 213.173 611.418 237.151 607.868 250.3C580.828 350.455 432.51 315.385 432.51 315.385C385.585 305.227 324.412 283.704 322.815 219.149C323.824 192.516 336.142 159.031 360.712 132.415M562.663 117.559C545.019 104.018 521.403 93.3528 490.048 88.0404C462.545 85.0347 438.612 87.9823 418.119 94.9753M418.119 94.9753C407.108 92.9477 381.031 91.4673 364.816 101.767C352.935 109.313 356.492 113.963 364.899 114.818M418.119 94.9753C406.366 98.986 395.744 104.327 386.229 110.639M386.229 110.639C379.186 114.134 370.834 115.422 364.899 114.818M386.229 110.639C376.598 117.028 368.101 124.411 360.712 132.415M364.899 114.818C362.122 118.743 357.398 127.758 360.712 132.415" stroke="#353535" stroke-width="6" stroke-linecap="round" stroke-linejoin="round"/>
<ellipse cx="558.614" cy="258.475" rx="7.75" ry="2.25" transform="rotate(11.6978 558.614 258.475)" fill="#353535"/>
<ellipse cx="554.571" cy="269.945" rx="7.5" ry="3.25" transform="rotate(33.4365 554.571 269.945)" fill="#353535"/>
<ellipse cx="336.775" cy="215.644" rx="6.75" ry="3" transform="rotate(17.0657 336.775 215.644)" fill="#353535"/>
<ellipse cx="337.198" cy="228.352" rx="6.5" ry="3.25" transform="rotate(-6.326 337.198 228.352)" fill="#353535"/>
<path d="M430.982 205.066C428.711 207.434 432.955 212.323 435.883 213.146C439.611 213.554 446.213 209.749 446.033 207.717C445.807 205.177 433.82 202.107 430.982 205.066Z" fill="#353535"/>
<path d="M435.883 213.146C432.955 212.323 428.711 207.434 430.982 205.066C433.82 202.107 445.807 205.177 446.033 207.717C446.213 209.749 439.611 213.554 435.883 213.146ZM435.883 213.146C433.538 219.261 427.012 229.429 419.664 221.182M435.883 213.146C436.373 219.403 440.266 231.028 451.921 227.474" stroke="#353535" stroke-width="3.5" stroke-linecap="round"/>
<ellipse cx="513.543" cy="151.468" rx="9.5" ry="7" transform="rotate(6.23675 513.543 151.468)" fill="#353535"/>
<ellipse cx="401.122" cy="135.41" rx="9" ry="6.75" transform="rotate(6.23675 401.122 135.41)" fill="#353535"/>
<ellipse cx="515.646" cy="215.073" rx="37.5" ry="38.5" transform="rotate(6.23675 515.646 215.073)" fill="#353535"/>
<ellipse cx="502.116" cy="198.505" rx="11.75" ry="11.5" transform="rotate(6.23675 502.116 198.505)" fill="white"/>
<ellipse cx="382.399" cy="193.973" rx="31.25" ry="36.5" transform="rotate(6.23675 382.399 193.973)" fill="#353535"/>
<ellipse cx="377.956" cy="179.404" rx="10.25" ry="10" transform="rotate(6.23675 377.956 179.404)" fill="white"/>
<path d="M475.773 86.4803C463.695 94.214 439.867 117.262 441.18 147.584M506.341 89.8209C494.331 94.628 468.76 113.378 462.553 149.92" stroke="#353535" stroke-width="14.5" stroke-linecap="round" stroke-linejoin="round"/>
<path d="M523.875 378.523C552.623 369.743 543.125 341.023 532.625 318.273C520.125 320.523 523.875 319.773 510.375 321.273C495.92 313.088 477.436 306.986 465.625 310.529C460.481 312.072 456.603 315.446 454.875 321.273C448.501 342.773 498.501 386.273 523.875 378.523Z" fill="white"/>
<path d="M454.875 321.273C448.501 342.773 498.501 386.273 523.875 378.523C552.623 369.743 543.125 341.023 532.625 318.273C520.125 320.523 523.875 319.773 510.375 321.273M454.875 321.273C456.603 315.446 460.481 312.072 465.625 310.529M454.875 321.273L462.875 323.023M520.625 340.773C521.125 336.273 519.625 331.773 510.375 321.273M510.375 321.273C495.92 313.088 477.436 306.986 465.625 310.529M465.625 310.529L469.375 318.273" stroke="#353535" stroke-width="6" stroke-linecap="round" stroke-linejoin="round"/>
<path d="M317.162 326.722C320.801 310.532 363.8 303.828 384.844 302.5C377.867 311.64 373.164 343.097 371.897 362.178L344.503 361.971L335.549 350.37C333.738 351.814 331.786 352.72 330.161 352.888C325.678 353.35 312.612 346.96 317.162 326.722Z" fill="white"/>
<path d="M341.261 338.848C341.487 343.625 338.735 347.83 335.549 350.37M335.549 350.37C333.738 351.814 331.786 352.72 330.161 352.888C325.678 353.35 312.612 346.96 317.162 326.722C320.801 310.532 363.8 303.828 384.844 302.5C377.867 311.64 373.164 343.097 371.897 362.178L344.503 361.971L335.549 350.37Z" stroke="#353535" stroke-width="6" stroke-linecap="round" stroke-linejoin="round"/>
<ellipse cx="432.819" cy="331.25" rx="3" ry="3.75" fill="#353535"/>
<ellipse cx="440.069" cy="331.25" rx="2.75" ry="3.75" fill="#353535"/>
<path d="M398.819 239.75L435.319 294.75C432.902 298.75 429.019 307.5 432.819 310.5M432.819 310.5C437.569 314.25 447.569 313.25 451.569 310.5C455.569 307.75 461.319 299.5 459.319 295.75M432.819 310.5C434.652 303.75 442.519 291.35 459.319 295.75M459.319 295.75C457.319 292 442.069 290.75 442.069 290.75L402.569 237" stroke="#353535" stroke-width="4" stroke-linecap="round" stroke-linejoin="round"/>
<ellipse cx="447.138" cy="304.129" rx="3.40449" ry="2.67335" transform="rotate(-34.4073 447.138 304.129)" fill="#353535"/>
</svg>
