<svg width="48" height="48" viewBox="0 0 48 48" fill="none" xmlns="http://www.w3.org/2000/svg">
<rect width="48" height="48" fill="#353535"/>
<path fill-rule="evenodd" clip-rule="evenodd" d="M25.0232 8.79554C24.4214 8.32743 23.5786 8.32743 22.9767 8.79554L10.4767 18.5178C10.0708 18.8335 9.83331 19.319 9.83331 19.8333V35.1111C9.83331 36.2899 10.3016 37.4203 11.1351 38.2538C11.9686 39.0873 13.099 39.5556 14.2778 39.5556H33.7222C34.9009 39.5556 36.0314 39.0873 36.8649 38.2538C37.6984 37.4203 38.1666 36.2899 38.1666 35.1111V19.8333C38.1666 19.319 37.9292 18.8335 37.5232 18.5178L25.0232 8.79554ZM29.8333 36.2222H33.7222C34.0169 36.2222 34.2995 36.1052 34.5079 35.8968C34.7163 35.6884 34.8333 35.4058 34.8333 35.1111V20.6485L24 12.2226L13.1666 20.6485V35.1111C13.1666 35.4058 13.2837 35.6884 13.4921 35.8968C13.7005 36.1052 13.9831 36.2222 14.2778 36.2222H18.1666V24C18.1666 23.0795 18.9128 22.3333 19.8333 22.3333H28.1666C29.0871 22.3333 29.8333 23.0795 29.8333 24V36.2222ZM21.5 36.2222V25.6667H26.5V36.2222H21.5Z" fill="white"/>
</svg>
