<svg width="48" height="48" viewBox="0 0 48 48" fill="none" xmlns="http://www.w3.org/2000/svg">
<rect width="48" height="48" fill="#353535"/>
<path fill-rule="evenodd" clip-rule="evenodd" d="M21.7814 9.04063C22.4561 8.6519 23.2212 8.44727 24 8.44727C24.7787 8.44727 25.5438 8.65188 26.2185 9.04057L26.2222 9.04271L35.9444 14.5982C36.486 14.9109 36.954 15.3335 37.3193 15.8369C37.4133 15.9336 37.4971 16.0434 37.5677 16.1654C37.6279 16.2696 37.6757 16.3776 37.7113 16.4877C38.0096 17.0949 38.1659 17.7635 38.1666 18.4427V29.5572C38.1658 30.3366 37.9601 31.1021 37.5701 31.7769C37.18 32.4516 36.6194 33.012 35.9444 33.4017L35.938 33.4054L26.2222 38.9572L26.219 38.9591C25.7626 39.2221 25.2648 39.4009 24.7495 39.489C24.5242 39.6027 24.2695 39.6667 24 39.6667C23.7304 39.6667 23.4758 39.6027 23.2505 39.489C22.7351 39.4009 22.2373 39.2221 21.7809 38.959L21.7778 38.9572L12.062 33.4054L12.0555 33.4017C11.3806 33.012 10.8199 32.4516 10.4299 31.7769C10.0399 31.1021 9.83411 30.3366 9.83331 29.5572V18.4427C9.83401 17.7635 9.99035 17.0949 10.2887 16.4876C10.3243 16.3776 10.3721 16.2696 10.4323 16.1654C10.5029 16.0434 10.5866 15.9337 10.6806 15.837C11.0459 15.3336 11.5139 14.911 12.0555 14.5983L12.062 14.5946L21.7814 9.04063ZM25.6666 35.4355L34.2778 30.5149L34.2804 30.5134C34.448 30.416 34.5872 30.2765 34.6842 30.1087C34.7817 29.94 34.8331 29.7487 34.8333 29.5538V19.6726L25.6666 24.9752V35.4355ZM22.3333 24.9752V35.4356L13.7222 30.5149L13.7196 30.5134C13.552 30.416 13.4128 30.2765 13.3158 30.1087C13.2184 29.9402 13.167 29.7491 13.1666 29.5545V19.6726L22.3333 24.9752ZM24.562 11.9332L33.1108 16.8182L24 22.0884L14.8892 16.8182L23.438 11.9332L23.4444 11.9295C23.6133 11.8319 23.8049 11.7806 24 11.7806C24.195 11.7806 24.3866 11.8319 24.5555 11.9295L24.562 11.9332Z" fill="white"/>
</svg>
